{
  "asset": {
    "generator": "Rollercoaster example",
    "version": "2.0"
  },
  "scene": 0,
  "scenes": [
    {
      "nodes": [
        0
      ]
    }
  ],
  "nodes": [
    {
      "name": "cavePillar",
      "mesh": 0
    }
  ],
  "meshes": [
    {
      "name": "cavePillar",
      "primitives": [
        {
          "attributes": {
            "POSITION": 0,
            "NORMAL": 1,
            "COLOR_0": 2
          },
          "indices": 3,
          "material": 0
        },
        {
          "attributes": {
            "POSITION": 4,
            "NORMAL": 5,
            "COLOR_0": 6
          },
          "indices": 7,
          "material": 1
        }
      ]
    }
  ],
  "accessors": [
    {
      "bufferView": 0,
      "componentType": 5126,
      "count": 24,
      "type": "VEC3",
      "min": [
        -0.5,
        0.0,
        -0.75
      ],
      "max": [
        0.5,
        1.8,
        0.75
      ]
    },
    {
      "bufferView": 1,
      "componentType": 5126,
      "count": 24,
      "type": "VEC3"
    },
    {
      "bufferView": 2,
      "componentType": 5126,
      "count": 24,
      "type": "VEC4"
    },
    {
      "bufferView": 3,
      "componentType": 5123,
      "count": 36,
      "type": "SCALAR"
    },
    {
      "bufferView": 4,
      "componentType": 5126,
      "count": 24,
      "type": "VEC3",
      "min": [
        -0.45,
        1.65,
        -0.75
      ],
      "max": [
        0.45,
        1.85,
        0.65
      ]
    },
    {
      "bufferView": 5,
      "componentType": 5126,
      "count": 24,
      "type": "VEC3"
    },
    {
      "bufferView": 6,
      "componentType": 5126,
      "count": 24,
      "type": "VEC4"
    },
    {
      "bufferView": 7,
      "componentType": 5123,
      "count": 36,
      "type": "SCALAR"
    }
  ],
  "materials": [
    {
      "name": "pillarShaft"
    },
    {
      "name": "pillarCap"
    }
  ],
  "bufferViews": [
    {
      "buffer": 0,
      "byteOffset": 0,
      "byteLength": 288
    },
    {
      "buffer": 0,
      "byteOffset": 288,
      "byteLength": 288
    },
    {
      "buffer": 0,
      "byteOffset": 576,
      "byteLength": 384
    },
    {
      "buffer": 0,
      "byteOffset": 960,
      "byteLength": 72
    },
    {
      "buffer": 0,
      "byteOffset": 1032,
      "byteLength": 288
    },
    {
      "buffer": 0,
      "byteOffset": 1320,
      "byteLength": 288
    },
    {
      "buffer": 0,
      "byteOffset": 1608,
      "byteLength": 384
    },
    {
      "buffer": 0,
      "byteOffset": 1992,
      "byteLength": 72
    }
  ],
  "buffers": [
    {
      "uri": "cave-pillar.bin",
      "byteLength": 2064
    }
  ]
}
