{
  "asset": {
    "generator": "Rollercoaster example",
    "version": "2.0"
  },
  "scene": 0,
  "scenes": [
    {
      "nodes": [
        0
      ]
    }
  ],
  "nodes": [
    {
      "name": "caveCrystal",
      "mesh": 0
    }
  ],
  "meshes": [
    {
      "name": "caveCrystal",
      "primitives": [
        {
          "attributes": {
            "POSITION": 0,
            "NORMAL": 1,
            "COLOR_0": 2
          },
          "indices": 3,
          "material": 0
        },
        {
          "attributes": {
            "POSITION": 4,
            "NORMAL": 5,
            "COLOR_0": 6
          },
          "indices": 7,
          "material": 1
        },
        {
          "attributes": {
            "POSITION": 8,
            "NORMAL": 9,
            "COLOR_0": 10
          },
          "indices": 11,
          "material": 2
        }
      ]
    }
  ],
  "accessors": [
    {
      "bufferView": 0,
      "componentType": 5126,
      "count": 24,
      "type": "VEC3",
      "min": [
        -0.25,
        0.0,
        -0.25
      ],
      "max": [
        0.25,
        0.2,
        0.25
      ]
    },
    {
      "bufferView": 1,
      "componentType": 5126,
      "count": 24,
      "type": "VEC3"
    },
    {
      "bufferView": 2,
      "componentType": 5126,
      "count": 24,
      "type": "VEC4"
    },
    {
      "bufferView": 3,
      "componentType": 5123,
      "count": 36,
      "type": "SCALAR"
    },
    {
      "bufferView": 4,
      "componentType": 5126,
      "count": 24,
      "type": "VEC3",
      "min": [
        -0.15,
        0.2,
        -0.15
      ],
      "max": [
        0.15,
        1.0,
        0.15
      ]
    },
    {
      "bufferView": 5,
      "componentType": 5126,
      "count": 24,
      "type": "VEC3"
    },
    {
      "bufferView": 6,
      "componentType": 5126,
      "count": 24,
      "type": "VEC4"
    },
    {
      "bufferView": 7,
      "componentType": 5123,
      "count": 36,
      "type": "SCALAR"
    },
    {
      "bufferView": 8,
      "componentType": 5126,
      "count": 24,
      "type": "VEC3",
      "min": [
        -0.07,
        0.96,
        -0.07
      ],
      "max": [
        0.07,
        1.24,
        0.07
      ]
    },
    {
      "bufferView": 9,
      "componentType": 5126,
      "count": 24,
      "type": "VEC3"
    },
    {
      "bufferView": 10,
      "componentType": 5126,
      "count": 24,
      "type": "VEC4"
    },
    {
      "bufferView": 11,
      "componentType": 5123,
      "count": 36,
      "type": "SCALAR"
    }
  ],
  "materials": [
    {
      "name": "crystalRoot"
    },
    {
      "name": "crystalShaft",
      "emissiveFactor": [
        0.16862745098039217,
        0.2901960784313726,
        0.47843137254901963
      ]
    },
    {
      "name": "crystalTip",
      "emissiveFactor": [
        0.30980392156862746,
        0.4823529411764706,
        0.7215686274509804
      ]
    }
  ],
  "bufferViews": [
    {
      "buffer": 0,
      "byteOffset": 0,
      "byteLength": 288
    },
    {
      "buffer": 0,
      "byteOffset": 288,
      "byteLength": 288
    },
    {
      "buffer": 0,
      "byteOffset": 576,
      "byteLength": 384
    },
    {
      "buffer": 0,
      "byteOffset": 960,
      "byteLength": 72
    },
    {
      "buffer": 0,
      "byteOffset": 1032,
      "byteLength": 288
    },
    {
      "buffer": 0,
      "byteOffset": 1320,
      "byteLength": 288
    },
    {
      "buffer": 0,
      "byteOffset": 1608,
      "byteLength": 384
    },
    {
      "buffer": 0,
      "byteOffset": 1992,
      "byteLength": 72
    },
    {
      "buffer": 0,
      "byteOffset": 2064,
      "byteLength": 288
    },
    {
      "buffer": 0,
      "byteOffset": 2352,
      "byteLength": 288
    },
    {
      "buffer": 0,
      "byteOffset": 2640,
      "byteLength": 384
    },
    {
      "buffer": 0,
      "byteOffset": 3024,
      "byteLength": 72
    }
  ],
  "buffers": [
    {
      "uri": "cave-crystal.bin",
      "byteLength": 3096
    }
  ]
}
