{
  "asset": {
    "generator": "Rollercoaster example",
    "version": "2.0"
  },
  "scene": 0,
  "scenes": [
    {
      "nodes": [
        0
      ]
    }
  ],
  "nodes": [
    {
      "name": "caveArch",
      "mesh": 0
    }
  ],
  "meshes": [
    {
      "name": "caveArch",
      "primitives": [
        {
          "attributes": {
            "POSITION": 0,
            "NORMAL": 1,
            "COLOR_0": 2
          },
          "indices": 3,
          "material": 0
        },
        {
          "attributes": {
            "POSITION": 4,
            "NORMAL": 5,
            "COLOR_0": 6
          },
          "indices": 7,
          "material": 1
        },
        {
          "attributes": {
            "POSITION": 8,
            "NORMAL": 9,
            "COLOR_0": 10
          },
          "indices": 11,
          "material": 2
        },
        {
          "attributes": {
            "POSITION": 12,
            "NORMAL": 13,
            "COLOR_0": 14
          },
          "indices": 15,
          "material": 3
        },
        {
          "attributes": {
            "POSITION": 16,
            "NORMAL": 17,
            "COLOR_0": 18
          },
          "indices": 19,
          "material": 4
        },
        {
          "attributes": {
            "POSITION": 20,
            "NORMAL": 21,
            "COLOR_0": 22
          },
          "indices": 23,
          "material": 5
        }
      ]
    }
  ],
  "accessors": [
    {
      "bufferView": 0,
      "componentType": 5126,
      "count": 24,
      "type": "VEC3",
      "min": [
        -1.35,
        1.525,
        -0.9
      ],
      "max": [
        1.35,
        2.175,
        0.7
      ]
    },
    {
      "bufferView": 1,
      "componentType": 5126,
      "count": 24,
      "type": "VEC3"
    },
    {
      "bufferView": 2,
      "componentType": 5126,
      "count": 24,
      "type": "VEC4"
    },
    {
      "bufferView": 3,
      "componentType": 5123,
      "count": 36,
      "type": "SCALAR"
    },
    {
      "bufferView": 4,
      "componentType": 5126,
      "count": 24,
      "type": "VEC3",
      "min": [
        -1.05,
        2.1,
        -0.85
      ],
      "max": [
        0.75,
        2.4,
        0.35
      ]
    },
    {
      "bufferView": 5,
      "componentType": 5126,
      "count": 24,
      "type": "VEC3"
    },
    {
      "bufferView": 6,
      "componentType": 5126,
      "count": 24,
      "type": "VEC4"
    },
    {
      "bufferView": 7,
      "componentType": 5123,
      "count": 36,
      "type": "SCALAR"
    },
    {
      "bufferView": 8,
      "componentType": 5126,
      "count": 24,
      "type": "VEC3",
      "min": [
        -0.5,
        0.0,
        -0.6
      ],
      "max": [
        0.5,
        1.5,
        -0.5
      ]
    },
    {
      "bufferView": 9,
      "componentType": 5126,
      "count": 24,
      "type": "VEC3"
    },
    {
      "bufferView": 10,
      "componentType": 5126,
      "count": 24,
      "type": "VEC4"
    },
    {
      "bufferView": 11,
      "componentType": 5123,
      "count": 36,
      "type": "SCALAR"
    },
    {
      "bufferView": 12,
      "componentType": 5126,
      "count": 24,
      "type": "VEC3",
      "min": [
        -0.475,
        0.0,
        -0.3
      ],
      "max": [
        0.475,
        0.05,
        0.5
      ]
    },
    {
      "bufferView": 13,
      "componentType": 5126,
      "count": 24,
      "type": "VEC3"
    },
    {
      "bufferView": 14,
      "componentType": 5126,
      "count": 24,
      "type": "VEC4"
    },
    {
      "bufferView": 15,
      "componentType": 5123,
      "count": 36,
      "type": "SCALAR"
    },
    {
      "bufferView": 16,
      "componentType": 5126,
      "count": 24,
      "type": "VEC3",
      "min": [
        -0.66,
        0.325,
        0.73
      ],
      "max": [
        -0.54,
        0.675,
        0.85
      ]
    },
    {
      "bufferView": 17,
      "componentType": 5126,
      "count": 24,
      "type": "VEC3"
    },
    {
      "bufferView": 18,
      "componentType": 5126,
      "count": 24,
      "type": "VEC4"
    },
    {
      "bufferView": 19,
      "componentType": 5123,
      "count": 36,
      "type": "SCALAR"
    },
    {
      "bufferView": 20,
      "componentType": 5126,
      "count": 24,
      "type": "VEC3",
      "min": [
        0.54,
        0.325,
        0.73
      ],
      "max": [
        0.66,
        0.675,
        0.85
      ]
    },
    {
      "bufferView": 21,
      "componentType": 5126,
      "count": 24,
      "type": "VEC3"
    },
    {
      "bufferView": 22,
      "componentType": 5126,
      "count": 24,
      "type": "VEC4"
    },
    {
      "bufferView": 23,
      "componentType": 5123,
      "count": 36,
      "type": "SCALAR"
    }
  ],
  "materials": [
    {
      "name": "archLintel"
    },
    {
      "name": "archCrown"
    },
    {
      "name": "archDarkness"
    },
    {
      "name": "archThreshold"
    },
    {
      "name": "archCrystalLeft"
    },
    {
      "name": "archCrystalRight"
    }
  ],
  "bufferViews": [
    {
      "buffer": 0,
      "byteOffset": 0,
      "byteLength": 288
    },
    {
      "buffer": 0,
      "byteOffset": 288,
      "byteLength": 288
    },
    {
      "buffer": 0,
      "byteOffset": 576,
      "byteLength": 384
    },
    {
      "buffer": 0,
      "byteOffset": 960,
      "byteLength": 72
    },
    {
      "buffer": 0,
      "byteOffset": 1032,
      "byteLength": 288
    },
    {
      "buffer": 0,
      "byteOffset": 1320,
      "byteLength": 288
    },
    {
      "buffer": 0,
      "byteOffset": 1608,
      "byteLength": 384
    },
    {
      "buffer": 0,
      "byteOffset": 1992,
      "byteLength": 72
    },
    {
      "buffer": 0,
      "byteOffset": 2064,
      "byteLength": 288
    },
    {
      "buffer": 0,
      "byteOffset": 2352,
      "byteLength": 288
    },
    {
      "buffer": 0,
      "byteOffset": 2640,
      "byteLength": 384
    },
    {
      "buffer": 0,
      "byteOffset": 3024,
      "byteLength": 72
    },
    {
      "buffer": 0,
      "byteOffset": 3096,
      "byteLength": 288
    },
    {
      "buffer": 0,
      "byteOffset": 3384,
      "byteLength": 288
    },
    {
      "buffer": 0,
      "byteOffset": 3672,
      "byteLength": 384
    },
    {
      "buffer": 0,
      "byteOffset": 4056,
      "byteLength": 72
    },
    {
      "buffer": 0,
      "byteOffset": 4128,
      "byteLength": 288
    },
    {
      "buffer": 0,
      "byteOffset": 4416,
      "byteLength": 288
    },
    {
      "buffer": 0,
      "byteOffset": 4704,
      "byteLength": 384
    },
    {
      "buffer": 0,
      "byteOffset": 5088,
      "byteLength": 72
    },
    {
      "buffer": 0,
      "byteOffset": 5160,
      "byteLength": 288
    },
    {
      "buffer": 0,
      "byteOffset": 5448,
      "byteLength": 288
    },
    {
      "buffer": 0,
      "byteOffset": 5736,
      "byteLength": 384
    },
    {
      "buffer": 0,
      "byteOffset": 6120,
      "byteLength": 72
    }
  ],
  "buffers": [
    {
      "uri": "cave-arch.bin",
      "byteLength": 6192
    }
  ]
}
