{
  "asset": {
    "generator": "Rollercoaster example",
    "version": "2.0"
  },
  "scene": 0,
  "scenes": [
    {
      "nodes": [
        0
      ]
    }
  ],
  "nodes": [
    {
      "name": "suspensionBridge",
      "mesh": 0
    }
  ],
  "meshes": [
    {
      "name": "suspensionBridge",
      "primitives": [
        {
          "attributes": {
            "POSITION": 0,
            "NORMAL": 1,
            "COLOR_0": 2
          },
          "indices": 3,
          "material": 0
        },
        {
          "attributes": {
            "POSITION": 4,
            "NORMAL": 5,
            "COLOR_0": 6
          },
          "indices": 7,
          "material": 0
        },
        {
          "attributes": {
            "POSITION": 8,
            "NORMAL": 9,
            "COLOR_0": 10
          },
          "indices": 11,
          "material": 0
        },
        {
          "attributes": {
            "POSITION": 12,
            "NORMAL": 13,
            "COLOR_0": 14
          },
          "indices": 15,
          "material": 0
        },
        {
          "attributes": {
            "POSITION": 16,
            "NORMAL": 17,
            "COLOR_0": 18
          },
          "indices": 19,
          "material": 0
        },
        {
          "attributes": {
            "POSITION": 20,
            "NORMAL": 21,
            "COLOR_0": 22
          },
          "indices": 23,
          "material": 0
        },
        {
          "attributes": {
            "POSITION": 24,
            "NORMAL": 25,
            "COLOR_0": 26
          },
          "indices": 27,
          "material": 0
        },
        {
          "attributes": {
            "POSITION": 28,
            "NORMAL": 29,
            "COLOR_0": 30
          },
          "indices": 31,
          "material": 0
        },
        {
          "attributes": {
            "POSITION": 32,
            "NORMAL": 33,
            "COLOR_0": 34
          },
          "indices": 35,
          "material": 0
        },
        {
          "attributes": {
            "POSITION": 36,
            "NORMAL": 37,
            "COLOR_0": 38
          },
          "indices": 39,
          "material": 1
        },
        {
          "attributes": {
            "POSITION": 40,
            "NORMAL": 41,
            "COLOR_0": 42
          },
          "indices": 43,
          "material": 1
        },
        {
          "attributes": {
            "POSITION": 44,
            "NORMAL": 45,
            "COLOR_0": 46
          },
          "indices": 47,
          "material": 1
        },
        {
          "attributes": {
            "POSITION": 48,
            "NORMAL": 49,
            "COLOR_0": 50
          },
          "indices": 51,
          "material": 1
        },
        {
          "attributes": {
            "POSITION": 52,
            "NORMAL": 53,
            "COLOR_0": 54
          },
          "indices": 55,
          "material": 1
        },
        {
          "attributes": {
            "POSITION": 56,
            "NORMAL": 57,
            "COLOR_0": 58
          },
          "indices": 59,
          "material": 1
        },
        {
          "attributes": {
            "POSITION": 60,
            "NORMAL": 61,
            "COLOR_0": 62
          },
          "indices": 63,
          "material": 2
        },
        {
          "attributes": {
            "POSITION": 64,
            "NORMAL": 65,
            "COLOR_0": 66
          },
          "indices": 67,
          "material": 2
        },
        {
          "attributes": {
            "POSITION": 68,
            "NORMAL": 69,
            "COLOR_0": 70
          },
          "indices": 71,
          "material": 2
        },
        {
          "attributes": {
            "POSITION": 72,
            "NORMAL": 73,
            "COLOR_0": 74
          },
          "indices": 75,
          "material": 2
        },
        {
          "attributes": {
            "POSITION": 76,
            "NORMAL": 77,
            "COLOR_0": 78
          },
          "indices": 79,
          "material": 2
        },
        {
          "attributes": {
            "POSITION": 80,
            "NORMAL": 81,
            "COLOR_0": 82
          },
          "indices": 83,
          "material": 2
        },
        {
          "attributes": {
            "POSITION": 84,
            "NORMAL": 85,
            "COLOR_0": 86
          },
          "indices": 87,
          "material": 2
        },
        {
          "attributes": {
            "POSITION": 88,
            "NORMAL": 89,
            "COLOR_0": 90
          },
          "indices": 91,
          "material": 2
        },
        {
          "attributes": {
            "POSITION": 92,
            "NORMAL": 93,
            "COLOR_0": 94
          },
          "indices": 95,
          "material": 2
        },
        {
          "attributes": {
            "POSITION": 96,
            "NORMAL": 97,
            "COLOR_0": 98
          },
          "indices": 99,
          "material": 2
        },
        {
          "attributes": {
            "POSITION": 100,
            "NORMAL": 101,
            "COLOR_0": 102
          },
          "indices": 103,
          "material": 2
        },
        {
          "attributes": {
            "POSITION": 104,
            "NORMAL": 105,
            "COLOR_0": 106
          },
          "indices": 107,
          "material": 2
        },
        {
          "attributes": {
            "POSITION": 108,
            "NORMAL": 109,
            "COLOR_0": 110
          },
          "indices": 111,
          "material": 2
        },
        {
          "attributes": {
            "POSITION": 112,
            "NORMAL": 113,
            "COLOR_0": 114
          },
          "indices": 115,
          "material": 2
        },
        {
          "attributes": {
            "POSITION": 116,
            "NORMAL": 117,
            "COLOR_0": 118
          },
          "indices": 119,
          "material": 2
        },
        {
          "attributes": {
            "POSITION": 120,
            "NORMAL": 121,
            "COLOR_0": 122
          },
          "indices": 123,
          "material": 2
        },
        {
          "attributes": {
            "POSITION": 124,
            "NORMAL": 125,
            "COLOR_0": 126
          },
          "indices": 127,
          "material": 2
        },
        {
          "attributes": {
            "POSITION": 128,
            "NORMAL": 129,
            "COLOR_0": 130
          },
          "indices": 131,
          "material": 2
        },
        {
          "attributes": {
            "POSITION": 132,
            "NORMAL": 133,
            "COLOR_0": 134
          },
          "indices": 135,
          "material": 2
        },
        {
          "attributes": {
            "POSITION": 136,
            "NORMAL": 137,
            "COLOR_0": 138
          },
          "indices": 139,
          "material": 2
        },
        {
          "attributes": {
            "POSITION": 140,
            "NORMAL": 141,
            "COLOR_0": 142
          },
          "indices": 143,
          "material": 2
        },
        {
          "attributes": {
            "POSITION": 144,
            "NORMAL": 145,
            "COLOR_0": 146
          },
          "indices": 147,
          "material": 2
        },
        {
          "attributes": {
            "POSITION": 148,
            "NORMAL": 149,
            "COLOR_0": 150
          },
          "indices": 151,
          "material": 2
        },
        {
          "attributes": {
            "POSITION": 152,
            "NORMAL": 153,
            "COLOR_0": 154
          },
          "indices": 155,
          "material": 2
        },
        {
          "attributes": {
            "POSITION": 156,
            "NORMAL": 157,
            "COLOR_0": 158
          },
          "indices": 159,
          "material": 2
        },
        {
          "attributes": {
            "POSITION": 160,
            "NORMAL": 161,
            "COLOR_0": 162
          },
          "indices": 163,
          "material": 2
        },
        {
          "attributes": {
            "POSITION": 164,
            "NORMAL": 165,
            "COLOR_0": 166
          },
          "indices": 167,
          "material": 2
        },
        {
          "attributes": {
            "POSITION": 168,
            "NORMAL": 169,
            "COLOR_0": 170
          },
          "indices": 171,
          "material": 2
        },
        {
          "attributes": {
            "POSITION": 172,
            "NORMAL": 173,
            "COLOR_0": 174
          },
          "indices": 175,
          "material": 2
        },
        {
          "attributes": {
            "POSITION": 176,
            "NORMAL": 177,
            "COLOR_0": 178
          },
          "indices": 179,
          "material": 2
        },
        {
          "attributes": {
            "POSITION": 180,
            "NORMAL": 181,
            "COLOR_0": 182
          },
          "indices": 183,
          "material": 2
        },
        {
          "attributes": {
            "POSITION": 184,
            "NORMAL": 185,
            "COLOR_0": 186
          },
          "indices": 187,
          "material": 2
        }
      ]
    }
  ],
  "accessors": [
    {
      "bufferView": 0,
      "componentType": 5126,
      "count": 24,
      "type": "VEC3",
      "min": [
        -3.47,
        2.0,
        -0.45
      ],
      "max": [
        -2.5300000000000002,
        2.12,
        0.45
      ]
    },
    {
      "bufferView": 1,
      "componentType": 5126,
      "count": 24,
      "type": "VEC3"
    },
    {
      "bufferView": 2,
      "componentType": 5126,
      "count": 24,
      "type": "VEC4"
    },
    {
      "bufferView": 3,
      "componentType": 5123,
      "count": 36,
      "type": "SCALAR"
    },
    {
      "bufferView": 4,
      "componentType": 5126,
      "count": 24,
      "type": "VEC3",
      "min": [
        -2.47,
        2.0,
        -0.45
      ],
      "max": [
        -1.53,
        2.12,
        0.45
      ]
    },
    {
      "bufferView": 5,
      "componentType": 5126,
      "count": 24,
      "type": "VEC3"
    },
    {
      "bufferView": 6,
      "componentType": 5126,
      "count": 24,
      "type": "VEC4"
    },
    {
      "bufferView": 7,
      "componentType": 5123,
      "count": 36,
      "type": "SCALAR"
    },
    {
      "bufferView": 8,
      "componentType": 5126,
      "count": 24,
      "type": "VEC3",
      "min": [
        -1.47,
        2.0,
        -0.45
      ],
      "max": [
        -0.53,
        2.12,
        0.45
      ]
    },
    {
      "bufferView": 9,
      "componentType": 5126,
      "count": 24,
      "type": "VEC3"
    },
    {
      "bufferView": 10,
      "componentType": 5126,
      "count": 24,
      "type": "VEC4"
    },
    {
      "bufferView": 11,
      "componentType": 5123,
      "count": 36,
      "type": "SCALAR"
    },
    {
      "bufferView": 12,
      "componentType": 5126,
      "count": 24,
      "type": "VEC3",
      "min": [
        -0.47,
        2.0,
        -0.45
      ],
      "max": [
        0.47,
        2.12,
        0.45
      ]
    },
    {
      "bufferView": 13,
      "componentType": 5126,
      "count": 24,
      "type": "VEC3"
    },
    {
      "bufferView": 14,
      "componentType": 5126,
      "count": 24,
      "type": "VEC4"
    },
    {
      "bufferView": 15,
      "componentType": 5123,
      "count": 36,
      "type": "SCALAR"
    },
    {
      "bufferView": 16,
      "componentType": 5126,
      "count": 24,
      "type": "VEC3",
      "min": [
        0.53,
        2.0,
        -0.45
      ],
      "max": [
        1.47,
        2.12,
        0.45
      ]
    },
    {
      "bufferView": 17,
      "componentType": 5126,
      "count": 24,
      "type": "VEC3"
    },
    {
      "bufferView": 18,
      "componentType": 5126,
      "count": 24,
      "type": "VEC4"
    },
    {
      "bufferView": 19,
      "componentType": 5123,
      "count": 36,
      "type": "SCALAR"
    },
    {
      "bufferView": 20,
      "componentType": 5126,
      "count": 24,
      "type": "VEC3",
      "min": [
        1.53,
        2.0,
        -0.45
      ],
      "max": [
        2.4699999999999998,
        2.12,
        0.45
      ]
    },
    {
      "bufferView": 21,
      "componentType": 5126,
      "count": 24,
      "type": "VEC3"
    },
    {
      "bufferView": 22,
      "componentType": 5126,
      "count": 24,
      "type": "VEC4"
    },
    {
      "bufferView": 23,
      "componentType": 5123,
      "count": 36,
      "type": "SCALAR"
    },
    {
      "bufferView": 24,
      "componentType": 5126,
      "count": 24,
      "type": "VEC3",
      "min": [
        2.53,
        2.0,
        -0.45
      ],
      "max": [
        3.4699999999999998,
        2.12,
        0.45
      ]
    },
    {
      "bufferView": 25,
      "componentType": 5126,
      "count": 24,
      "type": "VEC3"
    },
    {
      "bufferView": 26,
      "componentType": 5126,
      "count": 24,
      "type": "VEC4"
    },
    {
      "bufferView": 27,
      "componentType": 5123,
      "count": 36,
      "type": "SCALAR"
    },
    {
      "bufferView": 28,
      "componentType": 5126,
      "count": 24,
      "type": "VEC3",
      "min": [
        -3.5,
        1.88,
        -0.45
      ],
      "max": [
        3.5,
        2.0,
        -0.32
      ]
    },
    {
      "bufferView": 29,
      "componentType": 5126,
      "count": 24,
      "type": "VEC3"
    },
    {
      "bufferView": 30,
      "componentType": 5126,
      "count": 24,
      "type": "VEC4"
    },
    {
      "bufferView": 31,
      "componentType": 5123,
      "count": 36,
      "type": "SCALAR"
    },
    {
      "bufferView": 32,
      "componentType": 5126,
      "count": 24,
      "type": "VEC3",
      "min": [
        -3.5,
        1.88,
        0.32
      ],
      "max": [
        3.5,
        2.0,
        0.45
      ]
    },
    {
      "bufferView": 33,
      "componentType": 5126,
      "count": 24,
      "type": "VEC3"
    },
    {
      "bufferView": 34,
      "componentType": 5126,
      "count": 24,
      "type": "VEC4"
    },
    {
      "bufferView": 35,
      "componentType": 5123,
      "count": 36,
      "type": "SCALAR"
    },
    {
      "bufferView": 36,
      "componentType": 5126,
      "count": 24,
      "type": "VEC3",
      "min": [
        -2.8899999999999997,
        0,
        -0.44999999999999996
      ],
      "max": [
        -2.71,
        3,
        -0.27
      ]
    },
    {
      "bufferView": 37,
      "componentType": 5126,
      "count": 24,
      "type": "VEC3"
    },
    {
      "bufferView": 38,
      "componentType": 5126,
      "count": 24,
      "type": "VEC4"
    },
    {
      "bufferView": 39,
      "componentType": 5123,
      "count": 36,
      "type": "SCALAR"
    },
    {
      "bufferView": 40,
      "componentType": 5126,
      "count": 24,
      "type": "VEC3",
      "min": [
        -2.8899999999999997,
        0,
        0.21
      ],
      "max": [
        -2.71,
        3,
        0.39
      ]
    },
    {
      "bufferView": 41,
      "componentType": 5126,
      "count": 24,
      "type": "VEC3"
    },
    {
      "bufferView": 42,
      "componentType": 5126,
      "count": 24,
      "type": "VEC4"
    },
    {
      "bufferView": 43,
      "componentType": 5123,
      "count": 36,
      "type": "SCALAR"
    },
    {
      "bufferView": 44,
      "componentType": 5126,
      "count": 24,
      "type": "VEC3",
      "min": [
        -2.98,
        2.88,
        -0.45
      ],
      "max": [
        -2.6199999999999997,
        3.04,
        0.45
      ]
    },
    {
      "bufferView": 45,
      "componentType": 5126,
      "count": 24,
      "type": "VEC3"
    },
    {
      "bufferView": 46,
      "componentType": 5126,
      "count": 24,
      "type": "VEC4"
    },
    {
      "bufferView": 47,
      "componentType": 5123,
      "count": 36,
      "type": "SCALAR"
    },
    {
      "bufferView": 48,
      "componentType": 5126,
      "count": 24,
      "type": "VEC3",
      "min": [
        2.71,
        0,
        -0.44999999999999996
      ],
      "max": [
        2.8899999999999997,
        3,
        -0.27
      ]
    },
    {
      "bufferView": 49,
      "componentType": 5126,
      "count": 24,
      "type": "VEC3"
    },
    {
      "bufferView": 50,
      "componentType": 5126,
      "count": 24,
      "type": "VEC4"
    },
    {
      "bufferView": 51,
      "componentType": 5123,
      "count": 36,
      "type": "SCALAR"
    },
    {
      "bufferView": 52,
      "componentType": 5126,
      "count": 24,
      "type": "VEC3",
      "min": [
        2.71,
        0,
        0.21
      ],
      "max": [
        2.8899999999999997,
        3,
        0.39
      ]
    },
    {
      "bufferView": 53,
      "componentType": 5126,
      "count": 24,
      "type": "VEC3"
    },
    {
      "bufferView": 54,
      "componentType": 5126,
      "count": 24,
      "type": "VEC4"
    },
    {
      "bufferView": 55,
      "componentType": 5123,
      "count": 36,
      "type": "SCALAR"
    },
    {
      "bufferView": 56,
      "componentType": 5126,
      "count": 24,
      "type": "VEC3",
      "min": [
        2.6199999999999997,
        2.88,
        -0.45
      ],
      "max": [
        2.98,
        3.04,
        0.45
      ]
    },
    {
      "bufferView": 57,
      "componentType": 5126,
      "count": 24,
      "type": "VEC3"
    },
    {
      "bufferView": 58,
      "componentType": 5126,
      "count": 24,
      "type": "VEC4"
    },
    {
      "bufferView": 59,
      "componentType": 5123,
      "count": 36,
      "type": "SCALAR"
    },
    {
      "bufferView": 60,
      "componentType": 5126,
      "count": 24,
      "type": "VEC3",
      "min": [
        -2.8699999999999997,
        2.96,
        -0.44999999999999996
      ],
      "max": [
        -2.73,
        3.04,
        -0.39
      ]
    },
    {
      "bufferView": 61,
      "componentType": 5126,
      "count": 24,
      "type": "VEC3"
    },
    {
      "bufferView": 62,
      "componentType": 5126,
      "count": 24,
      "type": "VEC4"
    },
    {
      "bufferView": 63,
      "componentType": 5123,
      "count": 36,
      "type": "SCALAR"
    },
    {
      "bufferView": 64,
      "componentType": 5126,
      "count": 24,
      "type": "VEC3",
      "min": [
        -2.17,
        2.74125,
        -0.44999999999999996
      ],
      "max": [
        -2.0300000000000002,
        2.82125,
        -0.39
      ]
    },
    {
      "bufferView": 65,
      "componentType": 5126,
      "count": 24,
      "type": "VEC3"
    },
    {
      "bufferView": 66,
      "componentType": 5126,
      "count": 24,
      "type": "VEC4"
    },
    {
      "bufferView": 67,
      "componentType": 5123,
      "count": 36,
      "type": "SCALAR"
    },
    {
      "bufferView": 68,
      "componentType": 5126,
      "count": 24,
      "type": "VEC3",
      "min": [
        -2.1350000000000002,
        2.12,
        -0.445
      ],
      "max": [
        -2.065,
        2.74125,
        -0.39499999999999996
      ]
    },
    {
      "bufferView": 69,
      "componentType": 5126,
      "count": 24,
      "type": "VEC3"
    },
    {
      "bufferView": 70,
      "componentType": 5126,
      "count": 24,
      "type": "VEC4"
    },
    {
      "bufferView": 71,
      "componentType": 5123,
      "count": 36,
      "type": "SCALAR"
    },
    {
      "bufferView": 72,
      "componentType": 5126,
      "count": 24,
      "type": "VEC3",
      "min": [
        -1.47,
        2.585,
        -0.44999999999999996
      ],
      "max": [
        -1.3299999999999998,
        2.665,
        -0.39
      ]
    },
    {
      "bufferView": 73,
      "componentType": 5126,
      "count": 24,
      "type": "VEC3"
    },
    {
      "bufferView": 74,
      "componentType": 5126,
      "count": 24,
      "type": "VEC4"
    },
    {
      "bufferView": 75,
      "componentType": 5123,
      "count": 36,
      "type": "SCALAR"
    },
    {
      "bufferView": 76,
      "componentType": 5126,
      "count": 24,
      "type": "VEC3",
      "min": [
        -1.4349999999999998,
        2.12,
        -0.445
      ],
      "max": [
        -1.365,
        2.585,
        -0.39499999999999996
      ]
    },
    {
      "bufferView": 77,
      "componentType": 5126,
      "count": 24,
      "type": "VEC3"
    },
    {
      "bufferView": 78,
      "componentType": 5126,
      "count": 24,
      "type": "VEC4"
    },
    {
      "bufferView": 79,
      "componentType": 5123,
      "count": 36,
      "type": "SCALAR"
    },
    {
      "bufferView": 80,
      "componentType": 5126,
      "count": 24,
      "type": "VEC3",
      "min": [
        -0.77,
        2.49125,
        -0.44999999999999996
      ],
      "max": [
        -0.6299999999999999,
        2.57125,
        -0.39
      ]
    },
    {
      "bufferView": 81,
      "componentType": 5126,
      "count": 24,
      "type": "VEC3"
    },
    {
      "bufferView": 82,
      "componentType": 5126,
      "count": 24,
      "type": "VEC4"
    },
    {
      "bufferView": 83,
      "componentType": 5123,
      "count": 36,
      "type": "SCALAR"
    },
    {
      "bufferView": 84,
      "componentType": 5126,
      "count": 24,
      "type": "VEC3",
      "min": [
        -0.735,
        2.12,
        -0.445
      ],
      "max": [
        -0.6649999999999999,
        2.49125,
        -0.39499999999999996
      ]
    },
    {
      "bufferView": 85,
      "componentType": 5126,
      "count": 24,
      "type": "VEC3"
    },
    {
      "bufferView": 86,
      "componentType": 5126,
      "count": 24,
      "type": "VEC4"
    },
    {
      "bufferView": 87,
      "componentType": 5123,
      "count": 36,
      "type": "SCALAR"
    },
    {
      "bufferView": 88,
      "componentType": 5126,
      "count": 24,
      "type": "VEC3",
      "min": [
        -0.07,
        2.46,
        -0.44999999999999996
      ],
      "max": [
        0.07,
        2.54,
        -0.39
      ]
    },
    {
      "bufferView": 89,
      "componentType": 5126,
      "count": 24,
      "type": "VEC3"
    },
    {
      "bufferView": 90,
      "componentType": 5126,
      "count": 24,
      "type": "VEC4"
    },
    {
      "bufferView": 91,
      "componentType": 5123,
      "count": 36,
      "type": "SCALAR"
    },
    {
      "bufferView": 92,
      "componentType": 5126,
      "count": 24,
      "type": "VEC3",
      "min": [
        -0.035,
        2.12,
        -0.445
      ],
      "max": [
        0.035,
        2.46,
        -0.39499999999999996
      ]
    },
    {
      "bufferView": 93,
      "componentType": 5126,
      "count": 24,
      "type": "VEC3"
    },
    {
      "bufferView": 94,
      "componentType": 5126,
      "count": 24,
      "type": "VEC4"
    },
    {
      "bufferView": 95,
      "componentType": 5123,
      "count": 36,
      "type": "SCALAR"
    },
    {
      "bufferView": 96,
      "componentType": 5126,
      "count": 24,
      "type": "VEC3",
      "min": [
        0.6299999999999999,
        2.49125,
        -0.44999999999999996
      ],
      "max": [
        0.77,
        2.57125,
        -0.39
      ]
    },
    {
      "bufferView": 97,
      "componentType": 5126,
      "count": 24,
      "type": "VEC3"
    },
    {
      "bufferView": 98,
      "componentType": 5126,
      "count": 24,
      "type": "VEC4"
    },
    {
      "bufferView": 99,
      "componentType": 5123,
      "count": 36,
      "type": "SCALAR"
    },
    {
      "bufferView": 100,
      "componentType": 5126,
      "count": 24,
      "type": "VEC3",
      "min": [
        0.6649999999999999,
        2.12,
        -0.445
      ],
      "max": [
        0.735,
        2.49125,
        -0.39499999999999996
      ]
    },
    {
      "bufferView": 101,
      "componentType": 5126,
      "count": 24,
      "type": "VEC3"
    },
    {
      "bufferView": 102,
      "componentType": 5126,
      "count": 24,
      "type": "VEC4"
    },
    {
      "bufferView": 103,
      "componentType": 5123,
      "count": 36,
      "type": "SCALAR"
    },
    {
      "bufferView": 104,
      "componentType": 5126,
      "count": 24,
      "type": "VEC3",
      "min": [
        1.3299999999999998,
        2.585,
        -0.44999999999999996
      ],
      "max": [
        1.47,
        2.665,
        -0.39
      ]
    },
    {
      "bufferView": 105,
      "componentType": 5126,
      "count": 24,
      "type": "VEC3"
    },
    {
      "bufferView": 106,
      "componentType": 5126,
      "count": 24,
      "type": "VEC4"
    },
    {
      "bufferView": 107,
      "componentType": 5123,
      "count": 36,
      "type": "SCALAR"
    },
    {
      "bufferView": 108,
      "componentType": 5126,
      "count": 24,
      "type": "VEC3",
      "min": [
        1.365,
        2.12,
        -0.445
      ],
      "max": [
        1.4349999999999998,
        2.585,
        -0.39499999999999996
      ]
    },
    {
      "bufferView": 109,
      "componentType": 5126,
      "count": 24,
      "type": "VEC3"
    },
    {
      "bufferView": 110,
      "componentType": 5126,
      "count": 24,
      "type": "VEC4"
    },
    {
      "bufferView": 111,
      "componentType": 5123,
      "count": 36,
      "type": "SCALAR"
    },
    {
      "bufferView": 112,
      "componentType": 5126,
      "count": 24,
      "type": "VEC3",
      "min": [
        2.0300000000000002,
        2.74125,
        -0.44999999999999996
      ],
      "max": [
        2.17,
        2.82125,
        -0.39
      ]
    },
    {
      "bufferView": 113,
      "componentType": 5126,
      "count": 24,
      "type": "VEC3"
    },
    {
      "bufferView": 114,
      "componentType": 5126,
      "count": 24,
      "type": "VEC4"
    },
    {
      "bufferView": 115,
      "componentType": 5123,
      "count": 36,
      "type": "SCALAR"
    },
    {
      "bufferView": 116,
      "componentType": 5126,
      "count": 24,
      "type": "VEC3",
      "min": [
        2.065,
        2.12,
        -0.445
      ],
      "max": [
        2.1350000000000002,
        2.74125,
        -0.39499999999999996
      ]
    },
    {
      "bufferView": 117,
      "componentType": 5126,
      "count": 24,
      "type": "VEC3"
    },
    {
      "bufferView": 118,
      "componentType": 5126,
      "count": 24,
      "type": "VEC4"
    },
    {
      "bufferView": 119,
      "componentType": 5123,
      "count": 36,
      "type": "SCALAR"
    },
    {
      "bufferView": 120,
      "componentType": 5126,
      "count": 24,
      "type": "VEC3",
      "min": [
        2.73,
        2.96,
        -0.44999999999999996
      ],
      "max": [
        2.8699999999999997,
        3.04,
        -0.39
      ]
    },
    {
      "bufferView": 121,
      "componentType": 5126,
      "count": 24,
      "type": "VEC3"
    },
    {
      "bufferView": 122,
      "componentType": 5126,
      "count": 24,
      "type": "VEC4"
    },
    {
      "bufferView": 123,
      "componentType": 5123,
      "count": 36,
      "type": "SCALAR"
    },
    {
      "bufferView": 124,
      "componentType": 5126,
      "count": 24,
      "type": "VEC3",
      "min": [
        -2.8699999999999997,
        2.96,
        0.39
      ],
      "max": [
        -2.73,
        3.04,
        0.44999999999999996
      ]
    },
    {
      "bufferView": 125,
      "componentType": 5126,
      "count": 24,
      "type": "VEC3"
    },
    {
      "bufferView": 126,
      "componentType": 5126,
      "count": 24,
      "type": "VEC4"
    },
    {
      "bufferView": 127,
      "componentType": 5123,
      "count": 36,
      "type": "SCALAR"
    },
    {
      "bufferView": 128,
      "componentType": 5126,
      "count": 24,
      "type": "VEC3",
      "min": [
        -2.17,
        2.74125,
        0.39
      ],
      "max": [
        -2.0300000000000002,
        2.82125,
        0.44999999999999996
      ]
    },
    {
      "bufferView": 129,
      "componentType": 5126,
      "count": 24,
      "type": "VEC3"
    },
    {
      "bufferView": 130,
      "componentType": 5126,
      "count": 24,
      "type": "VEC4"
    },
    {
      "bufferView": 131,
      "componentType": 5123,
      "count": 36,
      "type": "SCALAR"
    },
    {
      "bufferView": 132,
      "componentType": 5126,
      "count": 24,
      "type": "VEC3",
      "min": [
        -2.1350000000000002,
        2.12,
        0.39499999999999996
      ],
      "max": [
        -2.065,
        2.74125,
        0.445
      ]
    },
    {
      "bufferView": 133,
      "componentType": 5126,
      "count": 24,
      "type": "VEC3"
    },
    {
      "bufferView": 134,
      "componentType": 5126,
      "count": 24,
      "type": "VEC4"
    },
    {
      "bufferView": 135,
      "componentType": 5123,
      "count": 36,
      "type": "SCALAR"
    },
    {
      "bufferView": 136,
      "componentType": 5126,
      "count": 24,
      "type": "VEC3",
      "min": [
        -1.47,
        2.585,
        0.39
      ],
      "max": [
        -1.3299999999999998,
        2.665,
        0.44999999999999996
      ]
    },
    {
      "bufferView": 137,
      "componentType": 5126,
      "count": 24,
      "type": "VEC3"
    },
    {
      "bufferView": 138,
      "componentType": 5126,
      "count": 24,
      "type": "VEC4"
    },
    {
      "bufferView": 139,
      "componentType": 5123,
      "count": 36,
      "type": "SCALAR"
    },
    {
      "bufferView": 140,
      "componentType": 5126,
      "count": 24,
      "type": "VEC3",
      "min": [
        -1.4349999999999998,
        2.12,
        0.39499999999999996
      ],
      "max": [
        -1.365,
        2.585,
        0.445
      ]
    },
    {
      "bufferView": 141,
      "componentType": 5126,
      "count": 24,
      "type": "VEC3"
    },
    {
      "bufferView": 142,
      "componentType": 5126,
      "count": 24,
      "type": "VEC4"
    },
    {
      "bufferView": 143,
      "componentType": 5123,
      "count": 36,
      "type": "SCALAR"
    },
    {
      "bufferView": 144,
      "componentType": 5126,
      "count": 24,
      "type": "VEC3",
      "min": [
        -0.77,
        2.49125,
        0.39
      ],
      "max": [
        -0.6299999999999999,
        2.57125,
        0.44999999999999996
      ]
    },
    {
      "bufferView": 145,
      "componentType": 5126,
      "count": 24,
      "type": "VEC3"
    },
    {
      "bufferView": 146,
      "componentType": 5126,
      "count": 24,
      "type": "VEC4"
    },
    {
      "bufferView": 147,
      "componentType": 5123,
      "count": 36,
      "type": "SCALAR"
    },
    {
      "bufferView": 148,
      "componentType": 5126,
      "count": 24,
      "type": "VEC3",
      "min": [
        -0.735,
        2.12,
        0.39499999999999996
      ],
      "max": [
        -0.6649999999999999,
        2.49125,
        0.445
      ]
    },
    {
      "bufferView": 149,
      "componentType": 5126,
      "count": 24,
      "type": "VEC3"
    },
    {
      "bufferView": 150,
      "componentType": 5126,
      "count": 24,
      "type": "VEC4"
    },
    {
      "bufferView": 151,
      "componentType": 5123,
      "count": 36,
      "type": "SCALAR"
    },
    {
      "bufferView": 152,
      "componentType": 5126,
      "count": 24,
      "type": "VEC3",
      "min": [
        -0.07,
        2.46,
        0.39
      ],
      "max": [
        0.07,
        2.54,
        0.44999999999999996
      ]
    },
    {
      "bufferView": 153,
      "componentType": 5126,
      "count": 24,
      "type": "VEC3"
    },
    {
      "bufferView": 154,
      "componentType": 5126,
      "count": 24,
      "type": "VEC4"
    },
    {
      "bufferView": 155,
      "componentType": 5123,
      "count": 36,
      "type": "SCALAR"
    },
    {
      "bufferView": 156,
      "componentType": 5126,
      "count": 24,
      "type": "VEC3",
      "min": [
        -0.035,
        2.12,
        0.39499999999999996
      ],
      "max": [
        0.035,
        2.46,
        0.445
      ]
    },
    {
      "bufferView": 157,
      "componentType": 5126,
      "count": 24,
      "type": "VEC3"
    },
    {
      "bufferView": 158,
      "componentType": 5126,
      "count": 24,
      "type": "VEC4"
    },
    {
      "bufferView": 159,
      "componentType": 5123,
      "count": 36,
      "type": "SCALAR"
    },
    {
      "bufferView": 160,
      "componentType": 5126,
      "count": 24,
      "type": "VEC3",
      "min": [
        0.6299999999999999,
        2.49125,
        0.39
      ],
      "max": [
        0.77,
        2.57125,
        0.44999999999999996
      ]
    },
    {
      "bufferView": 161,
      "componentType": 5126,
      "count": 24,
      "type": "VEC3"
    },
    {
      "bufferView": 162,
      "componentType": 5126,
      "count": 24,
      "type": "VEC4"
    },
    {
      "bufferView": 163,
      "componentType": 5123,
      "count": 36,
      "type": "SCALAR"
    },
    {
      "bufferView": 164,
      "componentType": 5126,
      "count": 24,
      "type": "VEC3",
      "min": [
        0.6649999999999999,
        2.12,
        0.39499999999999996
      ],
      "max": [
        0.735,
        2.49125,
        0.445
      ]
    },
    {
      "bufferView": 165,
      "componentType": 5126,
      "count": 24,
      "type": "VEC3"
    },
    {
      "bufferView": 166,
      "componentType": 5126,
      "count": 24,
      "type": "VEC4"
    },
    {
      "bufferView": 167,
      "componentType": 5123,
      "count": 36,
      "type": "SCALAR"
    },
    {
      "bufferView": 168,
      "componentType": 5126,
      "count": 24,
      "type": "VEC3",
      "min": [
        1.3299999999999998,
        2.585,
        0.39
      ],
      "max": [
        1.47,
        2.665,
        0.44999999999999996
      ]
    },
    {
      "bufferView": 169,
      "componentType": 5126,
      "count": 24,
      "type": "VEC3"
    },
    {
      "bufferView": 170,
      "componentType": 5126,
      "count": 24,
      "type": "VEC4"
    },
    {
      "bufferView": 171,
      "componentType": 5123,
      "count": 36,
      "type": "SCALAR"
    },
    {
      "bufferView": 172,
      "componentType": 5126,
      "count": 24,
      "type": "VEC3",
      "min": [
        1.365,
        2.12,
        0.39499999999999996
      ],
      "max": [
        1.4349999999999998,
        2.585,
        0.445
      ]
    },
    {
      "bufferView": 173,
      "componentType": 5126,
      "count": 24,
      "type": "VEC3"
    },
    {
      "bufferView": 174,
      "componentType": 5126,
      "count": 24,
      "type": "VEC4"
    },
    {
      "bufferView": 175,
      "componentType": 5123,
      "count": 36,
      "type": "SCALAR"
    },
    {
      "bufferView": 176,
      "componentType": 5126,
      "count": 24,
      "type": "VEC3",
      "min": [
        2.0300000000000002,
        2.74125,
        0.39
      ],
      "max": [
        2.17,
        2.82125,
        0.44999999999999996
      ]
    },
    {
      "bufferView": 177,
      "componentType": 5126,
      "count": 24,
      "type": "VEC3"
    },
    {
      "bufferView": 178,
      "componentType": 5126,
      "count": 24,
      "type": "VEC4"
    },
    {
      "bufferView": 179,
      "componentType": 5123,
      "count": 36,
      "type": "SCALAR"
    },
    {
      "bufferView": 180,
      "componentType": 5126,
      "count": 24,
      "type": "VEC3",
      "min": [
        2.065,
        2.12,
        0.39499999999999996
      ],
      "max": [
        2.1350000000000002,
        2.74125,
        0.445
      ]
    },
    {
      "bufferView": 181,
      "componentType": 5126,
      "count": 24,
      "type": "VEC3"
    },
    {
      "bufferView": 182,
      "componentType": 5126,
      "count": 24,
      "type": "VEC4"
    },
    {
      "bufferView": 183,
      "componentType": 5123,
      "count": 36,
      "type": "SCALAR"
    },
    {
      "bufferView": 184,
      "componentType": 5126,
      "count": 24,
      "type": "VEC3",
      "min": [
        2.73,
        2.96,
        0.39
      ],
      "max": [
        2.8699999999999997,
        3.04,
        0.44999999999999996
      ]
    },
    {
      "bufferView": 185,
      "componentType": 5126,
      "count": 24,
      "type": "VEC3"
    },
    {
      "bufferView": 186,
      "componentType": 5126,
      "count": 24,
      "type": "VEC4"
    },
    {
      "bufferView": 187,
      "componentType": 5123,
      "count": 36,
      "type": "SCALAR"
    }
  ],
  "materials": [
    {
      "name": "bridgeDeck"
    },
    {
      "name": "bridgeSupport"
    },
    {
      "name": "bridgeRope"
    }
  ],
  "bufferViews": [
    {
      "buffer": 0,
      "byteOffset": 0,
      "byteLength": 288
    },
    {
      "buffer": 0,
      "byteOffset": 288,
      "byteLength": 288
    },
    {
      "buffer": 0,
      "byteOffset": 576,
      "byteLength": 384
    },
    {
      "buffer": 0,
      "byteOffset": 960,
      "byteLength": 72
    },
    {
      "buffer": 0,
      "byteOffset": 1032,
      "byteLength": 288
    },
    {
      "buffer": 0,
      "byteOffset": 1320,
      "byteLength": 288
    },
    {
      "buffer": 0,
      "byteOffset": 1608,
      "byteLength": 384
    },
    {
      "buffer": 0,
      "byteOffset": 1992,
      "byteLength": 72
    },
    {
      "buffer": 0,
      "byteOffset": 2064,
      "byteLength": 288
    },
    {
      "buffer": 0,
      "byteOffset": 2352,
      "byteLength": 288
    },
    {
      "buffer": 0,
      "byteOffset": 2640,
      "byteLength": 384
    },
    {
      "buffer": 0,
      "byteOffset": 3024,
      "byteLength": 72
    },
    {
      "buffer": 0,
      "byteOffset": 3096,
      "byteLength": 288
    },
    {
      "buffer": 0,
      "byteOffset": 3384,
      "byteLength": 288
    },
    {
      "buffer": 0,
      "byteOffset": 3672,
      "byteLength": 384
    },
    {
      "buffer": 0,
      "byteOffset": 4056,
      "byteLength": 72
    },
    {
      "buffer": 0,
      "byteOffset": 4128,
      "byteLength": 288
    },
    {
      "buffer": 0,
      "byteOffset": 4416,
      "byteLength": 288
    },
    {
      "buffer": 0,
      "byteOffset": 4704,
      "byteLength": 384
    },
    {
      "buffer": 0,
      "byteOffset": 5088,
      "byteLength": 72
    },
    {
      "buffer": 0,
      "byteOffset": 5160,
      "byteLength": 288
    },
    {
      "buffer": 0,
      "byteOffset": 5448,
      "byteLength": 288
    },
    {
      "buffer": 0,
      "byteOffset": 5736,
      "byteLength": 384
    },
    {
      "buffer": 0,
      "byteOffset": 6120,
      "byteLength": 72
    },
    {
      "buffer": 0,
      "byteOffset": 6192,
      "byteLength": 288
    },
    {
      "buffer": 0,
      "byteOffset": 6480,
      "byteLength": 288
    },
    {
      "buffer": 0,
      "byteOffset": 6768,
      "byteLength": 384
    },
    {
      "buffer": 0,
      "byteOffset": 7152,
      "byteLength": 72
    },
    {
      "buffer": 0,
      "byteOffset": 7224,
      "byteLength": 288
    },
    {
      "buffer": 0,
      "byteOffset": 7512,
      "byteLength": 288
    },
    {
      "buffer": 0,
      "byteOffset": 7800,
      "byteLength": 384
    },
    {
      "buffer": 0,
      "byteOffset": 8184,
      "byteLength": 72
    },
    {
      "buffer": 0,
      "byteOffset": 8256,
      "byteLength": 288
    },
    {
      "buffer": 0,
      "byteOffset": 8544,
      "byteLength": 288
    },
    {
      "buffer": 0,
      "byteOffset": 8832,
      "byteLength": 384
    },
    {
      "buffer": 0,
      "byteOffset": 9216,
      "byteLength": 72
    },
    {
      "buffer": 0,
      "byteOffset": 9288,
      "byteLength": 288
    },
    {
      "buffer": 0,
      "byteOffset": 9576,
      "byteLength": 288
    },
    {
      "buffer": 0,
      "byteOffset": 9864,
      "byteLength": 384
    },
    {
      "buffer": 0,
      "byteOffset": 10248,
      "byteLength": 72
    },
    {
      "buffer": 0,
      "byteOffset": 10320,
      "byteLength": 288
    },
    {
      "buffer": 0,
      "byteOffset": 10608,
      "byteLength": 288
    },
    {
      "buffer": 0,
      "byteOffset": 10896,
      "byteLength": 384
    },
    {
      "buffer": 0,
      "byteOffset": 11280,
      "byteLength": 72
    },
    {
      "buffer": 0,
      "byteOffset": 11352,
      "byteLength": 288
    },
    {
      "buffer": 0,
      "byteOffset": 11640,
      "byteLength": 288
    },
    {
      "buffer": 0,
      "byteOffset": 11928,
      "byteLength": 384
    },
    {
      "buffer": 0,
      "byteOffset": 12312,
      "byteLength": 72
    },
    {
      "buffer": 0,
      "byteOffset": 12384,
      "byteLength": 288
    },
    {
      "buffer": 0,
      "byteOffset": 12672,
      "byteLength": 288
    },
    {
      "buffer": 0,
      "byteOffset": 12960,
      "byteLength": 384
    },
    {
      "buffer": 0,
      "byteOffset": 13344,
      "byteLength": 72
    },
    {
      "buffer": 0,
      "byteOffset": 13416,
      "byteLength": 288
    },
    {
      "buffer": 0,
      "byteOffset": 13704,
      "byteLength": 288
    },
    {
      "buffer": 0,
      "byteOffset": 13992,
      "byteLength": 384
    },
    {
      "buffer": 0,
      "byteOffset": 14376,
      "byteLength": 72
    },
    {
      "buffer": 0,
      "byteOffset": 14448,
      "byteLength": 288
    },
    {
      "buffer": 0,
      "byteOffset": 14736,
      "byteLength": 288
    },
    {
      "buffer": 0,
      "byteOffset": 15024,
      "byteLength": 384
    },
    {
      "buffer": 0,
      "byteOffset": 15408,
      "byteLength": 72
    },
    {
      "buffer": 0,
      "byteOffset": 15480,
      "byteLength": 288
    },
    {
      "buffer": 0,
      "byteOffset": 15768,
      "byteLength": 288
    },
    {
      "buffer": 0,
      "byteOffset": 16056,
      "byteLength": 384
    },
    {
      "buffer": 0,
      "byteOffset": 16440,
      "byteLength": 72
    },
    {
      "buffer": 0,
      "byteOffset": 16512,
      "byteLength": 288
    },
    {
      "buffer": 0,
      "byteOffset": 16800,
      "byteLength": 288
    },
    {
      "buffer": 0,
      "byteOffset": 17088,
      "byteLength": 384
    },
    {
      "buffer": 0,
      "byteOffset": 17472,
      "byteLength": 72
    },
    {
      "buffer": 0,
      "byteOffset": 17544,
      "byteLength": 288
    },
    {
      "buffer": 0,
      "byteOffset": 17832,
      "byteLength": 288
    },
    {
      "buffer": 0,
      "byteOffset": 18120,
      "byteLength": 384
    },
    {
      "buffer": 0,
      "byteOffset": 18504,
      "byteLength": 72
    },
    {
      "buffer": 0,
      "byteOffset": 18576,
      "byteLength": 288
    },
    {
      "buffer": 0,
      "byteOffset": 18864,
      "byteLength": 288
    },
    {
      "buffer": 0,
      "byteOffset": 19152,
      "byteLength": 384
    },
    {
      "buffer": 0,
      "byteOffset": 19536,
      "byteLength": 72
    },
    {
      "buffer": 0,
      "byteOffset": 19608,
      "byteLength": 288
    },
    {
      "buffer": 0,
      "byteOffset": 19896,
      "byteLength": 288
    },
    {
      "buffer": 0,
      "byteOffset": 20184,
      "byteLength": 384
    },
    {
      "buffer": 0,
      "byteOffset": 20568,
      "byteLength": 72
    },
    {
      "buffer": 0,
      "byteOffset": 20640,
      "byteLength": 288
    },
    {
      "buffer": 0,
      "byteOffset": 20928,
      "byteLength": 288
    },
    {
      "buffer": 0,
      "byteOffset": 21216,
      "byteLength": 384
    },
    {
      "buffer": 0,
      "byteOffset": 21600,
      "byteLength": 72
    },
    {
      "buffer": 0,
      "byteOffset": 21672,
      "byteLength": 288
    },
    {
      "buffer": 0,
      "byteOffset": 21960,
      "byteLength": 288
    },
    {
      "buffer": 0,
      "byteOffset": 22248,
      "byteLength": 384
    },
    {
      "buffer": 0,
      "byteOffset": 22632,
      "byteLength": 72
    },
    {
      "buffer": 0,
      "byteOffset": 22704,
      "byteLength": 288
    },
    {
      "buffer": 0,
      "byteOffset": 22992,
      "byteLength": 288
    },
    {
      "buffer": 0,
      "byteOffset": 23280,
      "byteLength": 384
    },
    {
      "buffer": 0,
      "byteOffset": 23664,
      "byteLength": 72
    },
    {
      "buffer": 0,
      "byteOffset": 23736,
      "byteLength": 288
    },
    {
      "buffer": 0,
      "byteOffset": 24024,
      "byteLength": 288
    },
    {
      "buffer": 0,
      "byteOffset": 24312,
      "byteLength": 384
    },
    {
      "buffer": 0,
      "byteOffset": 24696,
      "byteLength": 72
    },
    {
      "buffer": 0,
      "byteOffset": 24768,
      "byteLength": 288
    },
    {
      "buffer": 0,
      "byteOffset": 25056,
      "byteLength": 288
    },
    {
      "buffer": 0,
      "byteOffset": 25344,
      "byteLength": 384
    },
    {
      "buffer": 0,
      "byteOffset": 25728,
      "byteLength": 72
    },
    {
      "buffer": 0,
      "byteOffset": 25800,
      "byteLength": 288
    },
    {
      "buffer": 0,
      "byteOffset": 26088,
      "byteLength": 288
    },
    {
      "buffer": 0,
      "byteOffset": 26376,
      "byteLength": 384
    },
    {
      "buffer": 0,
      "byteOffset": 26760,
      "byteLength": 72
    },
    {
      "buffer": 0,
      "byteOffset": 26832,
      "byteLength": 288
    },
    {
      "buffer": 0,
      "byteOffset": 27120,
      "byteLength": 288
    },
    {
      "buffer": 0,
      "byteOffset": 27408,
      "byteLength": 384
    },
    {
      "buffer": 0,
      "byteOffset": 27792,
      "byteLength": 72
    },
    {
      "buffer": 0,
      "byteOffset": 27864,
      "byteLength": 288
    },
    {
      "buffer": 0,
      "byteOffset": 28152,
      "byteLength": 288
    },
    {
      "buffer": 0,
      "byteOffset": 28440,
      "byteLength": 384
    },
    {
      "buffer": 0,
      "byteOffset": 28824,
      "byteLength": 72
    },
    {
      "buffer": 0,
      "byteOffset": 28896,
      "byteLength": 288
    },
    {
      "buffer": 0,
      "byteOffset": 29184,
      "byteLength": 288
    },
    {
      "buffer": 0,
      "byteOffset": 29472,
      "byteLength": 384
    },
    {
      "buffer": 0,
      "byteOffset": 29856,
      "byteLength": 72
    },
    {
      "buffer": 0,
      "byteOffset": 29928,
      "byteLength": 288
    },
    {
      "buffer": 0,
      "byteOffset": 30216,
      "byteLength": 288
    },
    {
      "buffer": 0,
      "byteOffset": 30504,
      "byteLength": 384
    },
    {
      "buffer": 0,
      "byteOffset": 30888,
      "byteLength": 72
    },
    {
      "buffer": 0,
      "byteOffset": 30960,
      "byteLength": 288
    },
    {
      "buffer": 0,
      "byteOffset": 31248,
      "byteLength": 288
    },
    {
      "buffer": 0,
      "byteOffset": 31536,
      "byteLength": 384
    },
    {
      "buffer": 0,
      "byteOffset": 31920,
      "byteLength": 72
    },
    {
      "buffer": 0,
      "byteOffset": 31992,
      "byteLength": 288
    },
    {
      "buffer": 0,
      "byteOffset": 32280,
      "byteLength": 288
    },
    {
      "buffer": 0,
      "byteOffset": 32568,
      "byteLength": 384
    },
    {
      "buffer": 0,
      "byteOffset": 32952,
      "byteLength": 72
    },
    {
      "buffer": 0,
      "byteOffset": 33024,
      "byteLength": 288
    },
    {
      "buffer": 0,
      "byteOffset": 33312,
      "byteLength": 288
    },
    {
      "buffer": 0,
      "byteOffset": 33600,
      "byteLength": 384
    },
    {
      "buffer": 0,
      "byteOffset": 33984,
      "byteLength": 72
    },
    {
      "buffer": 0,
      "byteOffset": 34056,
      "byteLength": 288
    },
    {
      "buffer": 0,
      "byteOffset": 34344,
      "byteLength": 288
    },
    {
      "buffer": 0,
      "byteOffset": 34632,
      "byteLength": 384
    },
    {
      "buffer": 0,
      "byteOffset": 35016,
      "byteLength": 72
    },
    {
      "buffer": 0,
      "byteOffset": 35088,
      "byteLength": 288
    },
    {
      "buffer": 0,
      "byteOffset": 35376,
      "byteLength": 288
    },
    {
      "buffer": 0,
      "byteOffset": 35664,
      "byteLength": 384
    },
    {
      "buffer": 0,
      "byteOffset": 36048,
      "byteLength": 72
    },
    {
      "buffer": 0,
      "byteOffset": 36120,
      "byteLength": 288
    },
    {
      "buffer": 0,
      "byteOffset": 36408,
      "byteLength": 288
    },
    {
      "buffer": 0,
      "byteOffset": 36696,
      "byteLength": 384
    },
    {
      "buffer": 0,
      "byteOffset": 37080,
      "byteLength": 72
    },
    {
      "buffer": 0,
      "byteOffset": 37152,
      "byteLength": 288
    },
    {
      "buffer": 0,
      "byteOffset": 37440,
      "byteLength": 288
    },
    {
      "buffer": 0,
      "byteOffset": 37728,
      "byteLength": 384
    },
    {
      "buffer": 0,
      "byteOffset": 38112,
      "byteLength": 72
    },
    {
      "buffer": 0,
      "byteOffset": 38184,
      "byteLength": 288
    },
    {
      "buffer": 0,
      "byteOffset": 38472,
      "byteLength": 288
    },
    {
      "buffer": 0,
      "byteOffset": 38760,
      "byteLength": 384
    },
    {
      "buffer": 0,
      "byteOffset": 39144,
      "byteLength": 72
    },
    {
      "buffer": 0,
      "byteOffset": 39216,
      "byteLength": 288
    },
    {
      "buffer": 0,
      "byteOffset": 39504,
      "byteLength": 288
    },
    {
      "buffer": 0,
      "byteOffset": 39792,
      "byteLength": 384
    },
    {
      "buffer": 0,
      "byteOffset": 40176,
      "byteLength": 72
    },
    {
      "buffer": 0,
      "byteOffset": 40248,
      "byteLength": 288
    },
    {
      "buffer": 0,
      "byteOffset": 40536,
      "byteLength": 288
    },
    {
      "buffer": 0,
      "byteOffset": 40824,
      "byteLength": 384
    },
    {
      "buffer": 0,
      "byteOffset": 41208,
      "byteLength": 72
    },
    {
      "buffer": 0,
      "byteOffset": 41280,
      "byteLength": 288
    },
    {
      "buffer": 0,
      "byteOffset": 41568,
      "byteLength": 288
    },
    {
      "buffer": 0,
      "byteOffset": 41856,
      "byteLength": 384
    },
    {
      "buffer": 0,
      "byteOffset": 42240,
      "byteLength": 72
    },
    {
      "buffer": 0,
      "byteOffset": 42312,
      "byteLength": 288
    },
    {
      "buffer": 0,
      "byteOffset": 42600,
      "byteLength": 288
    },
    {
      "buffer": 0,
      "byteOffset": 42888,
      "byteLength": 384
    },
    {
      "buffer": 0,
      "byteOffset": 43272,
      "byteLength": 72
    },
    {
      "buffer": 0,
      "byteOffset": 43344,
      "byteLength": 288
    },
    {
      "buffer": 0,
      "byteOffset": 43632,
      "byteLength": 288
    },
    {
      "buffer": 0,
      "byteOffset": 43920,
      "byteLength": 384
    },
    {
      "buffer": 0,
      "byteOffset": 44304,
      "byteLength": 72
    },
    {
      "buffer": 0,
      "byteOffset": 44376,
      "byteLength": 288
    },
    {
      "buffer": 0,
      "byteOffset": 44664,
      "byteLength": 288
    },
    {
      "buffer": 0,
      "byteOffset": 44952,
      "byteLength": 384
    },
    {
      "buffer": 0,
      "byteOffset": 45336,
      "byteLength": 72
    },
    {
      "buffer": 0,
      "byteOffset": 45408,
      "byteLength": 288
    },
    {
      "buffer": 0,
      "byteOffset": 45696,
      "byteLength": 288
    },
    {
      "buffer": 0,
      "byteOffset": 45984,
      "byteLength": 384
    },
    {
      "buffer": 0,
      "byteOffset": 46368,
      "byteLength": 72
    },
    {
      "buffer": 0,
      "byteOffset": 46440,
      "byteLength": 288
    },
    {
      "buffer": 0,
      "byteOffset": 46728,
      "byteLength": 288
    },
    {
      "buffer": 0,
      "byteOffset": 47016,
      "byteLength": 384
    },
    {
      "buffer": 0,
      "byteOffset": 47400,
      "byteLength": 72
    },
    {
      "buffer": 0,
      "byteOffset": 47472,
      "byteLength": 288
    },
    {
      "buffer": 0,
      "byteOffset": 47760,
      "byteLength": 288
    },
    {
      "buffer": 0,
      "byteOffset": 48048,
      "byteLength": 384
    },
    {
      "buffer": 0,
      "byteOffset": 48432,
      "byteLength": 72
    }
  ],
  "buffers": [
    {
      "uri": "suspension-bridge.bin",
      "byteLength": 48504
    }
  ]
}
